<?xml version="1.0" encoding="UTF-8"?>
<svg version="1.1" xmlns="http://www.w3.org/2000/svg" width="1920" height="848">
<path d="M0 0 C0.99 0 1.98 0 3 0 C2.31744747 8.22655421 -0.90946354 15.79703329 -3.67382812 23.51367188 C-7.58875521 34.82417084 -9.49682459 46.02100701 -9 58 C-8.31164062 56.67935547 -8.31164062 56.67935547 -7.609375 55.33203125 C-6.99578125 54.17058594 -6.3821875 53.00914062 -5.75 51.8125 C-4.84507812 50.08966797 -4.84507812 50.08966797 -3.921875 48.33203125 C-2.15342878 45.26600559 -0.38264132 42.61401351 2 40 C2.66 40 3.32 40 4 40 C3.51968926 44.22673449 2.70259786 48.15025417 1.5625 52.25 C-2.7930674 69.45770963 -2.29194847 86.54593085 0 104 C0.99 104 1.98 104 3 104 C4.11552505 101.7689499 4.23678091 100.25923704 4.4296875 97.78125 C5.96200883 79.59793467 9.71442949 67.98049484 21.625 53.875 C22.18751465 53.19864502 22.7500293 52.52229004 23.32958984 51.82543945 C23.87309082 51.19984131 24.4165918 50.57424316 24.9765625 49.9296875 C25.46205566 49.36491699 25.94754883 48.80014648 26.44775391 48.21826172 C28 47 28 47 32 47 C31.49077357 52.18392506 28.81780873 55.88033746 26.125 60.1875 C20.13561085 70.0978485 17.63954613 78.39995646 17 90 C23.67391488 89.09873628 26.75007279 84.83214522 30.78125 79.7578125 C32.21546568 77.85680021 33.62261894 75.94246046 35 74 C36.485 74.495 36.485 74.495 38 75 C36.30659397 83.44821451 29.3112168 90.1880142 23.78369141 96.48217773 C19.28170302 101.44167245 19.28170302 101.44167245 17.9765625 107.71875 C19.45378148 112.45487191 22.26135438 115.69384507 25.375 119.5 C26.0040625 120.28737549 26.633125 121.07475098 27.28125 121.88598633 C28.5657037 123.49334103 29.85443654 125.09728573 31.14746094 126.69775391 C33.33181722 129.41236641 35.47510006 132.15702732 37.61401367 134.9074707 C43.8611188 144.07418032 43.8611188 144.07418032 52 151 C51.71125 149.9378125 51.4225 148.875625 51.125 147.78125 C50.74948724 146.35430151 50.3745162 144.92721038 50 143.5 C49.80921875 142.80390625 49.6184375 142.1078125 49.421875 141.390625 C48.14322988 136.4587081 47.81642526 132.09419909 48 127 C49.485 127.495 49.485 127.495 51 128 C51.88671875 129.90625 51.88671875 129.90625 52.6875 132.5 C56.93914428 146.44507237 56.93914428 146.44507237 65.28515625 157.8828125 C67.68114701 159.03960548 67.68114701 159.03960548 70.23046875 159.921875 C73.64954359 161.25285477 76.51507243 163.15619314 79.5 165.25 C80.05445801 165.63518799 80.60891602 166.02037598 81.18017578 166.41723633 C84.73007866 168.94206428 87.91081579 171.68758229 91.0625 174.6875 C98.24597233 181.32465647 106.43132789 185.79377087 116.34375 186.1640625 C126.8669846 185.51409801 134.65215962 180.1667267 142.1875 173.1875 C145.91656904 169.77900005 149.8239154 166.97202163 154.0625 164.25 C154.91074341 163.70315552 154.91074341 163.70315552 155.77612305 163.14526367 C160.46561101 160.19552243 160.46561101 160.19552243 163.0078125 159.26538086 C167.90283054 157.39898107 169.77418753 155.23964443 172.1171875 150.53515625 C173.06280734 148.38902183 173.98147417 146.23084071 174.875 144.0625 C175.34679687 142.97775391 175.81859375 141.89300781 176.3046875 140.77539062 C178.27876231 136.21314672 180.16327266 131.61909129 182 127 C182.66 127 183.32 127 184 127 C184.23952163 132.63624342 183.38279585 137.48573392 182 142.9375 C181.80921875 143.71673828 181.6184375 144.49597656 181.421875 145.29882812 C180.9550862 147.20099248 180.47854864 149.10076009 180 151 C187.44527634 143.61879661 194.08056458 135.77697934 200.39453125 127.41796875 C202.16602296 125.07507158 203.97722693 122.77210029 205.82421875 120.48828125 C206.2826416 119.91432617 206.74106445 119.34037109 207.21337891 118.74902344 C208.49118494 117.15165028 209.7785232 115.56191598 211.06640625 113.97265625 C213.16311301 110.74923435 213.97444107 108.83895089 214 105 C212.78444794 102.39117563 212.78444794 102.39117563 210.75 100 C210.02167969 99.05898437 209.29335937 98.11796875 208.54296875 97.1484375 C207.69788658 96.09688448 206.85005861 95.04753425 206 94 C204.51273974 92.16188084 203.02745332 90.32242156 201.54980469 88.4765625 C200.57477423 87.26273601 199.59002095 86.05664197 198.59472656 84.859375 C195.98509989 81.63495371 194.36782172 79.17908076 194 75 C194.99 74.67 195.98 74.34 197 74 C197.59167969 74.73605469 198.18335938 75.47210938 198.79296875 76.23046875 C199.58316406 77.20628906 200.37335938 78.18210937 201.1875 79.1875 C201.96480469 80.15042969 202.74210937 81.11335938 203.54296875 82.10546875 C205.92927688 84.9166839 208.21957131 87.57433095 211 90 C212.32 90 213.64 90 215 90 C213.9426034 79.43994712 212.27225559 71.36468918 206.73828125 62.26171875 C206.33101807 61.59140625 205.92375488 60.92109375 205.50415039 60.23046875 C204.68038842 58.88858824 203.84522702 57.55362662 202.99780273 56.2265625 C200.84122401 52.77675675 200 51.17509001 200 47 C203.67796274 47.16871389 205.47330763 48.19127284 207.90234375 50.80859375 C208.92904009 52.00554291 209.94014722 53.21599269 210.9375 54.4375 C211.46529053 55.07204102 211.99308105 55.70658203 212.53686523 56.36035156 C222.61935614 68.69049184 226.08738407 79.50389748 227.26660156 95.22021484 C227.33459961 96.06535645 227.40259766 96.91049805 227.47265625 97.78125 C227.52687744 98.54501953 227.58109863 99.30878906 227.63696289 100.09570312 C227.85981378 102.23459944 227.85981378 102.23459944 230 104 C230.66 104 231.32 104 232 104 C234.15172829 84.23923003 234.6078618 66.1149893 228.8046875 46.96875 C228 44 228 44 228 40 C231.28113465 41.36209464 232.67769675 42.57926163 234.359375 45.6953125 C234.75253906 46.41074219 235.14570312 47.12617188 235.55078125 47.86328125 C236.14439453 48.98283203 236.14439453 48.98283203 236.75 50.125 C237.16121094 50.87910156 237.57242187 51.63320312 237.99609375 52.41015625 C239.00735347 54.26805201 240.00501405 56.13333832 241 58 C241.55333745 44.6584192 238.91794813 32.56953294 234.4375 20.0625 C229.50631029 6.10237138 229.50631029 6.10237138 229 0 C230.75390625 0.10546875 230.75390625 0.10546875 233 1 C234.5072049 3.10049828 235.72580812 5.05113097 236.9375 7.3125 C237.28522461 7.94406006 237.63294922 8.57562012 237.99121094 9.22631836 C250.21895028 31.84536544 254.97950568 56.32408611 252.125 81.8125 C252.04660889 82.53010498 251.96821777 83.24770996 251.88745117 83.98706055 C251.37449506 88.20726802 250.48744411 92.01889958 249 96 C255.53702023 89.94720349 256.55388379 81.96548121 257.31665039 73.49731445 C257.65611026 69.90892453 257.95606659 68.06590012 260 65 C260.99 65.33 261.98 65.66 263 66 C263.69710004 80.32927859 261.28441361 93.87636823 251.45703125 104.8359375 C249.02281127 107.2877204 246.54343681 109.66241689 244 112 C243.34 112.66 242.68 113.32 242 114 C256.11887114 110.19057687 256.11887114 110.19057687 268 102 C268.99 102 269.98 102 271 102 C271.33 102.99 271.66 103.98 272 105 C268.63821267 107.83619816 265.36482124 109.9972242 261.4296875 111.953125 C260.3675 112.49066406 259.3053125 113.02820313 258.2109375 113.58203125 C256.01197695 114.68151153 253.81148739 115.77793987 251.609375 116.87109375 C245.08278666 120.18156808 239.24560614 123.83856947 233.40234375 128.2421875 C230.54369245 130.33388357 227.76453437 131.87173828 224.5625 133.375 C223.11037109 134.06722656 223.11037109 134.06722656 221.62890625 134.7734375 C220.76136719 135.17820312 219.89382813 135.58296875 219 136 C217.66445186 136.66221854 216.33017388 137.32705151 215 138 C217.64 137.67 220.28 137.34 223 137 C223.33 138.32 223.66 139.64 224 141 C220.61957544 143.25361638 218.98084039 143.29007353 215 143.625 C207.25465745 144.74614903 202.8938289 148.07381465 197 153 C195.86698668 153.89015336 194.73008365 154.77537251 193.58984375 155.65625 C181.89172812 164.3739363 181.89172812 164.3739363 171 174 C171.60585938 173.96519531 172.21171875 173.93039062 172.8359375 173.89453125 C181.26784194 173.62211588 188.97275182 175.08092627 196 180 C195.17208479 185.88739707 192.36133596 189.11015982 188 193 C181.45033427 197.14574487 175.44760855 199.16596811 167.6875 199.0625 C166.80449219 199.05347656 165.92148437 199.04445313 165.01171875 199.03515625 C164.01591797 199.01775391 164.01591797 199.01775391 163 199 C163 198.34 163 197.68 163 197 C163.68964844 196.84144531 164.37929688 196.68289063 165.08984375 196.51953125 C174.66617113 194.14186972 182.12327476 191.15158663 188 183 C183.03458454 181.01383381 179.27277731 180.58152561 174 181 C171.0745356 182.3509288 171.0745356 182.3509288 169 184 C169 183.01 169 182.02 169 181 C161.53210586 184.12539634 156.79860467 187.50835945 152 194 C151.58121582 194.56589844 151.16243164 195.13179687 150.73095703 195.71484375 C145.22144389 202.00850807 145.22144389 202.00850807 142 209 C142.721875 208.67 143.44375 208.34 144.1875 208 C147.03756191 206.98664465 149.01332251 206.91968598 152 207 C148.66424564 214.31027019 145.92673539 219.92953952 138.5625 223.8125 C135.10326968 224.96557677 132.60987624 225.26413729 129 225 C129.54723683 221.62537285 130.0549 219.91765 132 217 C123.91683431 226.03213273 123 239.33383064 123 251 C118.38 251 113.76 251 109 251 C109.1546875 249.1128125 109.1546875 249.1128125 109.3125 247.1875 C109.33690503 241.54993805 108.0506205 236.41410283 106.625 231 C106.40368408 230.15074951 106.18236816 229.30149902 105.9543457 228.42651367 C104.7996892 223.76786676 104.7996892 223.76786676 102 220 C102.33 221.65 102.66 223.3 103 225 C101.4365085 224.91195873 99.87414611 224.80376854 98.3125 224.6875 C97.44238281 224.62949219 96.57226562 224.57148438 95.67578125 224.51171875 C91.23151954 223.66179425 88.75961023 221.99287636 86.015625 218.40625 C85.43296875 217.4471875 84.8503125 216.488125 84.25 215.5 C83.65703125 214.5409375 83.0640625 213.581875 82.453125 212.59375 C81 210 81 210 80 207 C87.625 207.875 87.625 207.875 91 209 C90.34773437 208.154375 89.69546875 207.30875 89.0234375 206.4375 C88.60296143 205.89158203 88.18248535 205.34566406 87.74926758 204.78320312 C86.82838718 203.58829987 85.90633681 202.39429742 84.9831543 201.20117188 C82.52166489 198.01229609 80.13567587 194.79169333 77.8125 191.5 C73.96123022 186.34321503 69.10603405 183.03534468 63 181 C62.67 181.99 62.34 182.98 62 184 C61.505 183.505 61.01 183.01 60.5 182.5 C57.04357678 180.42614607 53.88922544 180.54551197 50 181 C46.63178728 181.89797113 46.63178728 181.89797113 44 183 C50.30326477 191.68828387 58.70859604 194.86404824 69 197 C69 197.66 69 198.32 69 199 C58.90522646 199.57991252 50.65013799 198.05465835 42.69140625 191.54296875 C38.71081518 187.91171361 36.90465399 185.27861214 36 180 C37.55851755 179.17988688 39.12201716 178.36923787 40.6875 177.5625 C41.55761719 177.11003906 42.42773438 176.65757812 43.32421875 176.19140625 C47.6818168 174.25116186 51.57833207 173.87437776 56.3125 173.9375 C57.19550781 173.94652344 58.07851563 173.95554687 58.98828125 173.96484375 C59.98408203 173.98224609 59.98408203 173.98224609 61 174 C55.11555283 168.64551857 48.93705308 163.71047556 42.640625 158.85546875 C40.27585799 157.02558952 37.98601069 155.1428771 35.734375 153.17578125 C28.85414185 147.29607901 23.07501771 144.69189425 14.1171875 143.5 C11 143 11 143 8 141 C8.33 139.68 8.66 138.36 9 137 C11.64 137.33 14.28 137.66 17 138 C14.80476635 136.88940898 12.60077753 135.81373573 10.37109375 134.7734375 C9.40300781 134.31195313 8.43492187 133.85046875 7.4375 133.375 C6.48746094 132.92898438 5.53742187 132.48296875 4.55859375 132.0234375 C1.45143146 130.39653507 -1.2340072 128.35728125 -4.02734375 126.2421875 C-10.84871741 121.19417376 -18.24884885 117.57908469 -25.84228516 113.84375 C-27.62799679 112.96111863 -29.40784336 112.06665231 -31.1875 111.171875 C-32.23292969 110.6572168 -33.27835938 110.14255859 -34.35546875 109.61230469 C-37.01114311 107.99320632 -38.35549376 106.60662716 -40 104 C-39.505 103.01 -39.505 103.01 -39 102 C-35.61403326 102.64163297 -33.26097459 103.95588768 -30.375 105.8125 C-23.55206416 109.99884411 -16.94185225 112.84085682 -9 114 C-9.64066406 113.45472656 -10.28132812 112.90945313 -10.94140625 112.34765625 C-22.32513697 102.42294318 -28.9740123 93.28342177 -31 78 C-31.06460219 75.87588004 -31.08611079 73.74997095 -31.0625 71.625 C-31.05347656 70.56539063 -31.04445313 69.50578125 -31.03515625 68.4140625 C-31.02355469 67.61742187 -31.01195312 66.82078125 -31 66 C-29.68 66 -28.36 66 -27 66 C-26.84144531 67.17175781 -26.68289063 68.34351563 -26.51953125 69.55078125 C-25.21878693 78.52792406 -23.95119274 87.17286692 -19 95 C-18.34 95.33 -17.68 95.66 -17 96 C-17.20496094 95.33355469 -17.40992188 94.66710937 -17.62109375 93.98046875 C-19.57653652 87.29079612 -20.6881301 80.95859723 -21 74 C-21.04125 73.10023438 -21.0825 72.20046875 -21.125 71.2734375 C-21.65321497 47.30568316 -15.62497896 21.91499747 -1.9140625 1.96484375 C-1.28242187 1.31644531 -0.65078125 0.66804687 0 0 Z " fill="#FEFEFE" transform="translate(844,149)"/>
<path d="M0 0 C9.82447603 -0.07016574 19.64889041 -0.12314362 29.47356796 -0.15543652 C34.03780857 -0.17095199 38.60187514 -0.19192463 43.16601562 -0.22631836 C104.42799678 -0.67570937 104.42799678 -0.67570937 120.96875 14.84765625 C129.53303232 23.97442322 131.18514657 33.58422788 131.25 45.6875 C131.2809375 47.10192383 131.2809375 47.10192383 131.3125 48.54492188 C131.37282743 59.51697311 128.5273165 68.9051972 121.09765625 77.09765625 C115.41494085 82.59540081 109.36999945 85.34432981 102 88 C100.33114117 88.66115992 98.66371926 89.32601154 97 90 C97.6290625 90.268125 98.258125 90.53625 98.90625 90.8125 C113.6155773 97.54689081 120.69588962 110.26288305 126.1875 124.875 C127.69450322 129.00011911 129.06435813 133.15711377 130.33984375 137.359375 C130.55680908 138.07367676 130.77377441 138.78797852 130.99731445 139.52392578 C131.40192082 140.87827909 131.79583588 142.23589518 132.17651367 143.59716797 C134.20443267 150.52611624 137.84245394 156.11239676 144 160 C148.53064733 162.13628624 153.11574958 163.87459668 158 165 C158 166.65 158 168.3 158 170 C153.39593013 170.05013226 148.79202555 170.0860587 144.18774414 170.10986328 C142.62749457 170.11980628 141.06726304 170.13336547 139.50708008 170.15087891 C113.52738448 170.43481001 113.52738448 170.43481001 107 165.5625 C98.80779998 157.13958648 96.54586334 143.2816119 93.4375 132.3125 C92.50771354 129.03509057 91.56734702 125.7609691 90.62109375 122.48828125 C90.41681259 121.7547493 90.21253143 121.02121735 90.00205994 120.26545715 C87.22276571 110.65518773 83.24163171 103.19810816 74.8046875 97.5234375 C68.58422267 94.18895635 62.51983444 93.45465164 55.60546875 92.86328125 C54.68004272 92.77776001 53.7546167 92.69223877 52.80114746 92.60412598 C50.53464044 92.39568632 48.26773779 92.19450853 46 92 C46.03820908 99.53748078 46.09778969 107.07454348 46.18390274 114.61162472 C46.22324309 118.11227604 46.25549655 121.6126809 46.27099609 125.11352539 C46.28917878 129.1476996 46.33918781 133.18095542 46.390625 137.21484375 C46.39185364 138.45894516 46.39308228 139.70304657 46.39434814 140.98484802 C46.52576684 148.85282074 47.28983619 155.89231864 52.75 161.9375 C56.07395981 163.50714769 59.40791371 164.22171464 63 165 C63 166.65 63 168.3 63 170 C42.21 170 21.42 170 0 170 C0 168.35 0 166.7 0 165 C0.60328125 164.85304688 1.2065625 164.70609375 1.828125 164.5546875 C5.87171669 163.41987306 8.46187307 162.55192506 11.4375 159.5 C15.2642689 150.92803767 15.29230024 141.64727237 15.25878906 132.40356445 C15.26404602 130.59163605 15.26404602 130.59163605 15.26940918 128.74310303 C15.27664859 125.46434052 15.27502976 122.18574238 15.26865101 118.90698266 C15.26354442 115.45810143 15.26829497 112.00923023 15.27142334 108.56034851 C15.27504806 102.77483178 15.27030179 96.98936634 15.26074219 91.20385742 C15.24984503 84.5321481 15.25339836 77.86056092 15.264395 71.18885452 C15.27349218 65.43737699 15.27474176 59.68593607 15.26951766 53.93445367 C15.26641328 50.50931973 15.26594651 47.0842431 15.27259064 43.65911293 C15.27768022 39.84207564 15.26991181 36.02527189 15.25878906 32.20825195 C15.26283752 31.08545334 15.26688599 29.96265472 15.27105713 28.80583191 C15.23313088 21.76570501 14.92840064 15.47112115 11.4375 9.1875 C8.03329866 6.13244751 4.36827684 5.14807276 0 4 C0 2.68 0 1.36 0 0 Z M46 4 C46 31.72 46 59.44 46 88 C69.96229918 89.15616091 69.96229918 89.15616091 89.625 78.375 C96.88589674 69.17005672 97.20164703 58.11308088 97.25 46.9375 C97.270625 45.77283203 97.29125 44.60816406 97.3125 43.40820312 C97.363516 31.96148827 95.9786632 20.76934154 88 12 C76.14105441 2.16575243 60.49329615 4 46 4 Z " fill="#FFFFFF" transform="translate(1560,629)"/>
<path d="M0 0 C18.69087678 16.407376 28.15036787 37.13510572 30.40234375 61.8984375 C31.79811349 87.52271413 27.76180832 113.59413818 10.49731445 133.64501953 C-2.229675 147.80476114 -19.87131023 156.75081441 -38.93652344 158.14208984 C-64.93425974 159.37203841 -86.66333595 156.24438767 -106.8125 138.6171875 C-124.02864613 121.81152451 -131.24071433 97.94196824 -131.64111328 74.33642578 C-131.558788 48.33616396 -124.82665517 24.09626111 -106.91015625 4.6484375 C-78.85354457 -21.73481762 -30.16185101 -24.40161781 0 0 Z M-80.24609375 0.67578125 C-95.33074318 19.39759235 -95.96539748 46.25096459 -95.91333008 69.17797852 C-95.9101791 72.065004 -95.93369731 74.95099139 -95.95898438 77.83789062 C-96.03513716 100.07426735 -94.84899086 127.08036387 -78.78515625 144.2109375 C-69.7130594 152.75637704 -59.23353174 154.35767673 -47.09765625 154.1484375 C-36.24880785 153.37351976 -27.90186142 149.60059215 -20.41015625 141.7734375 C-5.55758731 124.07243068 -5.23059376 97.03692789 -5.33691406 75.03271484 C-5.34764791 72.40048202 -5.33693712 69.76893131 -5.32421875 67.13671875 C-5.30463544 44.15731572 -6.56399345 15.6712469 -22.97265625 -2.2890625 C-33.14685175 -11.20025442 -44.47618871 -11.78405908 -57.31152344 -11.28076172 C-66.3849416 -10.56953907 -74.15010368 -5.89690946 -80.24609375 0.67578125 Z " fill="#FFFFFF" transform="translate(298.59765625,462.1015625)"/>
<path d="M0 0 C7.34531204 -0.33154617 14.68867807 -0.55803156 22.03979492 -0.71411133 C24.53597079 -0.77920929 27.03165617 -0.8677231 29.52612305 -0.98071289 C51.37925907 -1.94527112 51.37925907 -1.94527112 56.93188477 2.66162109 C59.8810871 5.78572601 61.91240257 9.26004772 64 13 C65.11483962 14.48427905 66.25298232 15.95170376 67.42578125 17.390625 C68.39072644 18.67505516 69.35298714 19.96150664 70.3125 21.25 C75.36538404 27.94841826 80.61401823 34.45178182 85.97753906 40.90307617 C90.26562163 46.07283736 94.37595747 51.34423963 98.44140625 56.69140625 C101.3807382 60.52617927 104.44098527 64.26051509 107.5 68 C112.24862969 73.80617575 116.85853483 79.69106516 121.40625 85.65625 C124.36211069 89.49886889 127.43107889 93.24751202 130.5 97 C135.40391587 102.99623345 140.18710144 109.06703546 144.87890625 115.23046875 C146.88485105 117.84964897 148.93519232 120.42715623 151 123 C151.06994176 112.95878524 151.12303328 102.91762978 151.15543652 92.87621975 C151.1709994 88.21206916 151.19206318 83.54808694 151.22631836 78.8840332 C151.2592503 74.3711847 151.27692323 69.85849671 151.28463173 65.34553719 C151.29011523 63.63580872 151.30082027 61.92608764 151.31719017 60.21642876 C151.46944466 43.6344293 150.42555776 26.21891609 139.234375 12.8984375 C133.70805017 7.84508642 127.38764413 5.75384124 120 5 C120 3.35 120 1.7 120 0 C143.76 0 167.52 0 192 0 C192 1.65 192 3.3 192 5 C191.0821875 5.14695312 190.164375 5.29390625 189.21875 5.4453125 C179.07117152 7.30001697 172.88717729 9.73954984 166.75 18.125 C158.90215669 30.87774538 157.71003669 46.04623839 157.68115234 60.67504883 C157.67110672 61.86688278 157.6610611 63.05871674 157.65071106 64.28666687 C157.62013069 68.17678398 157.60291437 72.06683309 157.5859375 75.95703125 C157.56826664 78.67373583 157.54772401 81.39041671 157.5272522 84.10710144 C157.48073728 90.49567642 157.44386251 96.88426799 157.41057932 103.27292413 C157.37216329 110.55488157 157.32280521 117.83675254 157.27259517 125.11863673 C157.16968195 140.07902699 157.08029149 155.03946991 157 170 C155.07013608 170.07260902 153.13948756 170.12457867 151.20874023 170.16772461 C150.13373764 170.19885849 149.05873505 170.22999237 147.95115662 170.2620697 C144.7981652 169.98207659 143.79275521 169.57169118 141.66015625 167.31640625 C140.75533424 166.09296373 139.89076917 164.83901269 139.0625 163.5625 C138.5770874 162.89017334 138.0916748 162.21784668 137.59155273 161.52514648 C136.56051091 160.09637241 135.54454491 158.65661319 134.54296875 157.20703125 C131.99994679 153.56954415 129.27190688 150.07669325 126.5625 146.5625 C126.02463867 145.85520752 125.48677734 145.14791504 124.93261719 144.41918945 C120.62816393 138.76236693 116.17224457 133.2417511 111.66870117 127.74291992 C107.49581456 122.63864755 103.45686201 117.44752035 99.45703125 112.20703125 C96.8559742 108.80145877 94.21308007 105.42960435 91.5625 102.0625 C90.87583252 101.19020752 90.87583252 101.19020752 90.17529297 100.30029297 C89.24740379 99.1220986 88.31934346 97.94403901 87.39111328 96.76611328 C85.09125763 93.84628952 82.79584055 90.92298107 80.5 88 C79.5833549 86.83331639 78.66668823 85.66664973 77.75 84.5 C75 81 75 81 72.25 77.5 C71.79608887 76.92233887 71.34217773 76.34467773 70.87451172 75.74951172 C69.95930007 74.58460823 69.04426056 73.41956947 68.12939453 72.25439453 C65.81686979 69.30960955 63.50125766 66.36734815 61.1796875 63.4296875 C60.70982422 62.83414063 60.23996094 62.23859375 59.75585938 61.625 C58.47099225 59.99665354 57.18476941 58.36937708 55.8984375 56.7421875 C53.32559971 53.4516158 50.82189445 50.10984767 48.31884766 46.76611328 C47.90266678 46.21065323 47.4864859 45.65519318 47.05769348 45.082901 C46.03819363 43.72213526 45.01905982 42.3610953 44 41 C43.95333814 50.89358507 43.91796084 60.7871433 43.89637566 70.68081665 C43.88600772 75.2765089 43.87197887 79.872125 43.84912109 84.46777344 C43.82714006 88.91577893 43.81537906 93.3637119 43.81024551 97.81176758 C43.8065945 99.49553568 43.79946751 101.17930051 43.78853989 102.86303711 C43.67043151 121.8432647 43.74319218 144.25830748 57.77734375 158.84765625 C62.90907895 163.11885507 68.54830556 164.6479905 75 166 C75 167.32 75 168.64 75 170 C51.24 170 27.48 170 3 170 C3 168.68 3 167.36 3 166 C4.50240234 165.65388672 4.50240234 165.65388672 6.03515625 165.30078125 C16.15003428 162.86990667 22.6189234 160.76572176 28.6875 152 C38.49978098 135.49952751 38.32987848 115.48251243 38.546875 96.82421875 C38.55752235 95.95011667 38.56816971 95.0760146 38.57913971 94.17542458 C38.63198323 89.56449565 38.67095331 84.95366434 38.70019531 80.3425293 C38.72700631 76.56258794 38.78302579 72.78477246 38.86425781 69.00561523 C38.96338015 64.38860157 39.01248048 59.77352819 39.02664948 55.1554966 C39.03996327 53.41518537 39.07011538 51.67490826 39.11843109 49.9352169 C39.35385568 40.96112431 39.30369175 34.1021217 33.16113281 27.11645508 C31.46696667 25.38492993 29.7486115 23.67652501 28 22 C26.77343524 20.55696692 25.560603 19.10187206 24.375 17.625 C17.36858864 9.69321356 10.42082921 6.05974534 0 5 C0 3.35 0 1.7 0 0 Z " fill="#FFFFFF" transform="translate(497,448)"/>
<path d="M0 0 C7.36362884 -0.3312229 14.72532398 -0.55789845 22.09472656 -0.71411133 C24.59773513 -0.7792568 27.10025325 -0.86780657 29.6015625 -0.98071289 C51.55434508 -1.94639063 51.55434508 -1.94639063 56.69824219 2.67041016 C59.39512747 5.81736437 61.15645016 9.30459121 63 13 C64.10959121 14.47381399 65.26060125 15.91833469 66.46875 17.3125 C66.97148438 17.92544922 67.47421875 18.53839844 67.9921875 19.16992188 C68.48976563 19.77384766 68.98734375 20.37777344 69.5 21 C74.25064651 26.80448711 78.85859602 32.69114543 83.40625 38.65625 C86.36211063 42.49886881 89.43107807 46.2475131 92.5 50 C97.24855577 55.80623873 101.85853224 61.69106177 106.40625 67.65625 C109.36211063 71.49886881 112.43107807 75.2475131 115.5 79 C120.24327645 84.79978351 124.84883945 90.67748052 129.390625 96.63671875 C132.9472592 101.26062151 136.65440588 105.76421686 140.359375 110.26953125 C143.04227132 113.54266476 145.66039675 116.84725321 148.19238281 120.23901367 C148.98603241 121.30100227 148.98603241 121.30100227 149.79571533 122.38444519 C150.39183624 123.18414482 150.39183624 123.18414482 151 124 C151.0467001 114.88871465 151.08205799 105.7774716 151.10362434 96.66609192 C151.11398419 92.43360107 151.12799749 88.20119315 151.15087891 83.96875 C151.17288976 79.87087205 151.18462695 75.77307297 151.18975449 71.67514038 C151.19340032 70.12534344 151.20051647 68.57554995 151.21146011 67.02578735 C151.34188126 47.75935857 150.41274948 27.75569746 138 12 C132.98371449 7.33368789 126.53701166 6.39625492 120 5 C120 3.35 120 1.7 120 0 C143.43 0 166.86 0 191 0 C191 1.65 191 3.3 191 5 C189.98292969 5.11214844 189.98292969 5.11214844 188.9453125 5.2265625 C180.78101506 6.3799674 173.7964184 8.73004984 168.18359375 15.04296875 C158.06886637 29.36582833 156.88536284 46.09287501 156.79467773 63.05908203 C156.78477814 64.22121719 156.77487854 65.38335236 156.76467896 66.58070374 C156.73330424 70.38971987 156.70840231 74.19874843 156.68359375 78.0078125 C156.66300343 80.66153361 156.64205155 83.31524942 156.62062073 85.96896362 C156.5709301 92.21952499 156.52590477 98.47011071 156.48259836 104.72071922 C156.43302254 111.8429724 156.37818061 118.96518207 156.32291877 126.08739305 C156.20946203 140.72488744 156.10254555 155.36242515 156 170 C154.06235325 170.06355479 152.12411045 170.10913243 150.18579102 170.14697266 C149.10652847 170.17425446 148.02726593 170.20153625 146.91529846 170.22964478 C144 170 144 170 141.02734375 167.6484375 C140.33769531 166.56820312 139.64804687 165.48796875 138.9375 164.375 C138.12431203 163.1718797 137.30913718 161.97010043 136.4921875 160.76953125 C136.08581055 160.1451416 135.67943359 159.52075195 135.26074219 158.87744141 C133.19758457 155.80507849 130.87637715 152.94781059 128.5625 150.0625 C127.63567957 148.88753772 126.70990248 147.71175171 125.78515625 146.53515625 C125.32512207 145.95137207 124.86508789 145.36758789 124.39111328 144.76611328 C122.09125763 141.84628952 119.79584055 138.92298107 117.5 136 C116.5833549 134.83331639 115.66668823 133.66664973 114.75 132.5 C90 101 90 101 65.25 69.5 C64.7955249 68.92161377 64.3410498 68.34322754 63.87280273 67.74731445 C62.96331629 66.58971273 62.053972 65.4319993 61.14477539 64.27416992 C58.74445209 61.21784158 56.3411251 58.1639359 53.93359375 55.11328125 C53.43214844 54.47712891 52.93070313 53.84097656 52.4140625 53.18554688 C51.45273119 51.96608031 50.49053565 50.74729439 49.52734375 49.52929688 C47.58750636 47.06697352 45.74001939 44.61002909 44 42 C43.93014151 52.84079178 43.87700807 63.681529 43.84456348 74.52250099 C43.82898285 79.55772543 43.80788535 84.59279458 43.77368164 89.62792969 C43.74081467 94.49738441 43.72309 99.36669083 43.71536827 104.23624802 C43.7098734 106.08356431 43.699145 107.93087353 43.68280983 109.77812576 C43.5474034 125.74179407 44.35243172 143.0245885 54.25 156.4375 C60.38617146 162.15529614 66.83246561 164.57392257 75 166 C75 167.32 75 168.64 75 170 C51.24 170 27.48 170 3 170 C3 168.68 3 167.36 3 166 C3.76183594 165.85304688 4.52367187 165.70609375 5.30859375 165.5546875 C14.5853269 163.539517 21.69583288 160.67776457 27.3125 152.75 C36.80722767 136.90796819 37.51421092 118.88033415 37.75 100.87109375 C37.7702121 99.48468532 37.7702121 99.48468532 37.79083252 98.07026863 C37.85857876 93.18889378 37.90684581 88.30774827 37.94042969 83.42602539 C37.97158143 79.43028449 38.0414395 75.43810027 38.14550781 71.44360352 C38.27271915 66.56051668 38.33417226 61.68059412 38.35021973 56.7959156 C38.36648371 54.95831468 38.40443218 53.12075173 38.46618652 51.28411674 C38.84570408 39.28880828 37.04191754 32.16399247 28.92807007 23.08773708 C27.30956437 21.36629816 25.65834933 19.68289907 24 18 C22.58126106 16.41852325 21.16391472 14.8357913 19.75 13.25 C14.1350849 7.89514413 7.62020597 5.64852817 0 5 C0 3.35 0 1.7 0 0 Z " fill="#FFFFFF" transform="translate(695,448)"/>
<path d="M0 0 C41.58 0 83.16 0 126 0 C126 14.85 126 29.7 126 45 C124.35 45 122.7 45 121 45 C120.78085938 44.16597656 120.56171875 43.33195313 120.3359375 42.47265625 C116.84284653 30.07644318 111.5267634 21.00300927 100.23046875 14.375 C82.48135366 5.44462763 63.80521732 5.41465838 44 4 C44 29.74 44 55.48 44 82 C67.31737752 80.98301892 67.31737752 80.98301892 86.1875 69.875 C88.72876843 65.8440225 89.82369953 61.5893541 91 57 C92.65 57 94.3 57 96 57 C96 74.82 96 92.64 96 111 C94.35 111 92.7 111 91 111 C90.85304688 110.35933594 90.70609375 109.71867188 90.5546875 109.05859375 C88.72880335 102.01739684 86.3171367 97.05550771 80.2890625 92.7890625 C69.29409008 86.61888811 56.18886584 86.71699211 44 86 C44 112.07 44 138.14 44 165 C81.2416013 163.56257976 81.2416013 163.56257976 112.1171875 144.390625 C118.28977511 136.5532316 121.95843756 127.70228245 124 118 C125.65 118 127.3 118 129 118 C129 135.16 129 152.32 129 170 C86.43 170 43.86 170 0 170 C0 168.35 0 166.7 0 165 C1.6396875 164.38125 1.6396875 164.38125 3.3125 163.75 C6.55664977 162.3372251 8.30359728 161.21423674 10 158 C12.44595394 151.43576931 12.28894653 145.08511856 12.2746582 138.13916016 C12.27976913 136.85536972 12.28488007 135.57157928 12.29014587 134.24888611 C12.3034844 130.74258058 12.30412026 127.23638318 12.30158257 123.73005724 C12.30050926 120.79537293 12.30540548 117.86071018 12.310188 114.92603052 C12.3212656 107.9981965 12.32173058 101.07041671 12.31567383 94.14257812 C12.30963628 87.0130988 12.32194339 79.88381693 12.3432439 72.75437129 C12.36090006 66.61739718 12.3668549 60.48048569 12.36360615 54.34348714 C12.36179938 50.68516056 12.36436849 47.02697483 12.37832069 43.36867142 C12.39331178 39.2855283 12.38389395 35.20278316 12.37231445 31.11962891 C12.37995819 29.91933548 12.38760193 28.71904205 12.39547729 27.4823761 C12.34387919 16.42470734 12.34387919 16.42470734 7.125 7.0625 C4.79137929 5.89568964 2.45407624 4.8861942 0 4 C0 2.68 0 1.36 0 0 Z " fill="#FFFFFF" transform="translate(1411,629)"/>
<path d="M0 0 C23.1 0 46.2 0 70 0 C70 1.65 70 3.3 70 5 C68.95199219 5.16435547 68.95199219 5.16435547 67.8828125 5.33203125 C66.51769531 5.56986328 66.51769531 5.56986328 65.125 5.8125 C64.22007813 5.96332031 63.31515625 6.11414063 62.3828125 6.26953125 C59.65587522 6.83051301 59.65587522 6.83051301 58 10 C57.78628229 23.03678058 67.38494899 35.62564239 74 46.3125 C75.1120255 48.12359542 76.22198424 49.93594755 77.33192444 51.74832153 C78.08690527 52.98072374 78.84255072 54.21271906 79.59886169 55.44430542 C83.6338516 62.0180002 87.6007898 68.63196886 91.5625 75.25 C92.21154297 76.33321533 92.86058594 77.41643066 93.52929688 78.5324707 C95.02023035 81.02122973 96.51049965 83.5103831 98 86 C117.14452896 53.89080953 117.14452896 53.89080953 122 18 C120.74981471 13.8683716 119.11477378 10.98362393 115.875 8.125 C111.69502726 6.48935849 107.41806649 5.72919544 103 5 C103 3.35 103 1.7 103 0 C125.44 0 147.88 0 171 0 C171 1.65 171 3.3 171 5 C170.31035156 5.08636719 169.62070313 5.17273438 168.91015625 5.26171875 C154.53150281 7.41161343 145.38131063 15.34777705 136.78369141 26.68652344 C132.02215746 33.16279273 127.93028572 39.99582639 124 47 C123.65146973 47.6172998 123.30293945 48.23459961 122.94384766 48.87060547 C121.0570204 52.24301286 119.26766907 55.64337639 117.55078125 59.10546875 C115.76333936 62.67816472 113.73532947 65.96302391 111.54296875 69.30078125 C101.26763544 86.25951741 100.84151201 102.20914819 101 121.75 C101.0094162 123.03108643 101.0188324 124.31217285 101.02853394 125.63208008 C101.07262831 129.33423108 101.15047354 133.03332477 101.25 136.734375 C101.28880028 138.40950165 101.28880028 138.40950165 101.3283844 140.11846924 C101.65552143 148.4718884 102.82588396 155.82588396 109 162 C112.53618731 163.86115121 116.06142697 164.45043167 120 165 C120 166.65 120 168.3 120 170 C97.56 170 75.12 170 52 170 C52 168.35 52 166.7 52 165 C52.59167969 164.90203125 53.18335938 164.8040625 53.79296875 164.703125 C58.80711934 163.75428084 62.52318744 162.97350007 66 159 C69.43459816 152.28527815 70.70427041 145.98529071 70.953125 138.5078125 C71.01127632 137.04426331 71.01127632 137.04426331 71.07060242 135.55114746 C71.16982941 132.40843448 71.22052371 129.26911793 71.25 126.125 C71.26080597 125.0499823 71.27161194 123.9749646 71.28274536 122.86737061 C71.31002334 103.47471646 67.7889248 91.69399678 56.21484375 76.09619141 C52.51438902 70.92322327 49.52826894 65.3627897 46.4375 59.8125 C41.38197125 51.02187647 36.24796848 42.27703119 31.0625 33.5625 C30.47202881 32.56259033 29.88155762 31.56268066 29.27319336 30.5324707 C21.05448804 15.35883229 21.05448804 15.35883229 7.40625 6.33203125 C4.94305035 5.81655829 2.48820867 5.37372304 0 5 C0 3.35 0 1.7 0 0 Z " fill="#FFFFFF" transform="translate(2,448)"/>
<path d="M0 0 C23.1 0 46.2 0 70 0 C70 1.32 70 2.64 70 4 C69.37351562 4.12117187 68.74703125 4.24234375 68.1015625 4.3671875 C66.87566406 4.61855469 66.87566406 4.61855469 65.625 4.875 C64.81289062 5.03742187 64.00078125 5.19984375 63.1640625 5.3671875 C60.81326077 5.86658932 60.81326077 5.86658932 59 8 C55.2434274 29.78812106 86.86685565 66.89625987 98 85 C100.77909863 81.5977612 102.69550563 77.87710262 104.6171875 73.953125 C104.95622101 73.26426208 105.29525452 72.57539917 105.64456177 71.86566162 C106.36125995 70.40426842 107.07555261 68.94169337 107.78759766 67.47802734 C108.85378461 65.29346917 109.93619173 63.11749701 111.01953125 60.94140625 C117.74619291 47.25112396 125.9671137 30.49945076 121.77734375 14.97265625 C120.47251828 11.66141573 118.87137757 10.07716675 116 8 C111.78857751 6.21014544 107.43514522 5.08615801 103 4 C103 2.68 103 1.36 103 0 C125.44 0 147.88 0 171 0 C171 1.32 171 2.64 171 4 C170.26136719 4.13535156 169.52273438 4.27070312 168.76171875 4.41015625 C151.3239349 8.11042296 141.09160059 19.70202711 131.67724609 34.1171875 C123.11614727 47.54688773 115.92621313 61.62220711 109.37890625 76.13671875 C108 79 108 79 106.35546875 81.62890625 C100.1937984 92.2877199 101.16572465 103.90293833 101.32763672 115.875 C101.37497812 119.62326773 101.36871257 123.36869471 101.35546875 127.1171875 C101.36662084 129.52866258 101.3808397 131.94012584 101.3984375 134.3515625 C101.39661469 135.45706451 101.39479187 136.56256653 101.39291382 137.7015686 C101.53957801 145.84371693 102.65230109 154.17405839 108.1875 160.5 C111.97925448 162.52226905 115.87831298 163.81467824 120 165 C120 166.65 120 168.3 120 170 C97.56 170 75.12 170 52 170 C52 168.35 52 166.7 52 165 C52.66386719 164.84144531 53.32773438 164.68289063 54.01171875 164.51953125 C61.10801128 162.64445249 64.89393148 160.53518645 68.75 154.0625 C74.86935168 139.07008838 74.94717477 110.72618819 68.98336792 95.8117981 C66.05150843 89.44966623 62.12641747 83.69090502 58.078125 77.99707031 C54.67461857 73.0885359 51.81704028 67.88039089 48.875 62.6875 C47.72681961 60.72282138 46.57451636 58.76054601 45.41796875 56.80078125 C43.1221655 52.90624384 40.83317666 49.00787929 38.55078125 45.10546875 C26.22923905 20.24332409 26.22923905 20.24332409 5 5 C3.34327363 4.62033354 1.67929755 4.26239024 0 4 C0 2.68 0 1.36 0 0 Z " fill="#FFFFFF" transform="translate(1712,629)"/>
<path d="M0 0 C50.49 0 100.98 0 153 0 C153 15.18 153 30.36 153 46 C151.68 46 150.36 46 149 46 C148.78085938 44.94941406 148.56171875 43.89882813 148.3359375 42.81640625 C145.50156463 29.96602421 141.09238687 20.82287161 130 13 C119.94331071 7.43703251 108.58944444 5.46461337 97.25415039 4.46386719 C96.26870743 4.37627136 95.28326447 4.28867554 94.26795959 4.19842529 C93.51953293 4.13294495 92.77110626 4.0674646 92 4 C92.06057819 22.89796896 92.13810898 41.79579628 92.23571491 60.69361115 C92.28064357 69.46858009 92.32006498 78.24350872 92.34643555 87.01855469 C92.36943937 94.66860645 92.402864 102.31853031 92.44870156 109.96848059 C92.47260169 114.01752451 92.49135146 118.066442 92.49761391 122.11555481 C92.50367935 125.93069356 92.52373149 129.74550896 92.55427551 133.5605278 C92.56303244 134.95684434 92.56678319 136.35320318 92.56500816 137.74954605 C92.55858408 145.13828687 92.66357011 151.32018652 96 158 C100.57622175 162.45888273 104.73654484 164.14589248 111 165 C111 166.65 111 168.3 111 170 C88.23 170 65.46 170 42 170 C42 168.35 42 166.7 42 165 C42.58007812 164.91363281 43.16015625 164.82726562 43.7578125 164.73828125 C49.6042881 163.68668745 52.91738041 162.37423527 57 158 C60.95045005 151.28480565 60.44193887 144.30964413 60.43237305 136.71118164 C60.44139856 135.26188322 60.45172771 133.81259243 60.46325684 132.36331177 C60.49076053 128.44440942 60.50010228 124.52565218 60.50611091 120.60666585 C60.51551191 116.50533283 60.54171667 112.40410746 60.56611633 108.30284119 C60.60973763 100.54345729 60.6383114 92.78409434 60.66143972 85.02462524 C60.68851485 76.18780958 60.73242491 67.35110244 60.77772844 58.51436436 C60.8705121 40.34296692 60.94222155 22.17154077 61 4 C57.9810013 4.28891655 54.96309923 4.58560767 51.9453125 4.88671875 C51.09880127 4.96692261 50.25229004 5.04712646 49.38012695 5.12976074 C36.6036044 6.4222192 23.72496612 10.02861014 15 20 C14.319375 20.7425 13.63875 21.485 12.9375 22.25 C7.75855244 29.60076428 6.13472706 37.17600407 5 46 C3.35 46 1.7 46 0 46 C0 30.82 0 15.64 0 0 Z " fill="#FFFFFF" transform="translate(1084,629)"/>
<path d="M0 0 C50.82 0 101.64 0 154 0 C154 15.18 154 30.36 154 46 C152.35 46 150.7 46 149 46 C148.67128906 44.44152344 148.67128906 44.44152344 148.3359375 42.8515625 C145.5478942 30.29405867 142.18079751 21.21654101 131.0546875 13.75390625 C120.37605636 7.62256944 109.39621186 5.56820861 97.29736328 4.47753906 C96.30568146 4.38796936 95.31399963 4.29839966 94.29226685 4.20611572 C93.15759476 4.10408844 93.15759476 4.10408844 92 4 C92.03722283 22.73306678 92.09716602 41.46593084 92.18390274 60.19883537 C92.22365383 68.89753388 92.25606624 77.59614243 92.27099609 86.29492188 C92.28403304 93.87983008 92.31104963 101.46454002 92.35461307 109.04933655 C92.37718216 113.06271291 92.39291343 117.07584517 92.39188385 121.08929062 C92.39113452 124.87332442 92.40919341 128.65681956 92.44116783 132.44071388 C92.45363775 134.47840768 92.4466241 136.51619215 92.43885803 138.5539093 C92.52288597 146.00557243 93.17777073 152.46018122 97 159 C101.23237056 162.8476096 105.53251654 163.86879653 111 165 C111 166.65 111 168.3 111 170 C88.56 170 66.12 170 43 170 C43 168.35 43 166.7 43 165 C43.66386719 164.85304688 44.32773438 164.70609375 45.01171875 164.5546875 C52.49466004 162.65391117 55.17447943 160.52083291 59.25 154 C60.95888443 149.44297485 61.12835793 144.70793462 61.15821838 139.88760376 C61.17290161 138.08301697 61.17290161 138.08301697 61.18788147 136.24197388 C61.19363693 134.93574066 61.1993924 133.62950745 61.20532227 132.28369141 C61.21491024 130.88380653 61.22492085 129.48392449 61.23532104 128.08404541 C61.26227666 124.29528357 61.28333659 120.5065094 61.30332303 116.71770525 C61.32524045 112.75386864 61.3526009 108.79006965 61.37937927 104.82626343 C61.42922851 97.32538199 61.47419606 89.82447958 61.51740164 82.32355726 C61.56684054 73.78183876 61.62173393 65.24015802 61.67708123 56.69847608 C61.79078196 39.13235232 61.89764678 21.56619346 62 4 C58.81425084 4.28813099 55.62974851 4.58835269 52.4453125 4.890625 C51.55110596 4.97135254 50.65689941 5.05208008 49.7355957 5.13525391 C35.19776653 6.53376244 22.25759313 11.04780102 12.6875 22.5859375 C7.74810163 29.65202127 6.2141914 37.59651743 5 46 C3.35 46 1.7 46 0 46 C0 30.82 0 15.64 0 0 Z " fill="#FFFFFF" transform="translate(1246,629)"/>
<path d="M0 0 C1.65 0 3.3 0 5 0 C5.7193417 1.73488292 6.43868253 3.46976621 7.15802002 5.20465088 C7.81299514 6.784287 8.46798427 8.36391732 9.12298584 9.94354248 C11.00654823 14.48607238 12.88984053 19.028714 14.77270508 23.5715332 C18.55685464 32.70088301 22.34352226 41.82915441 26.140625 50.953125 C35.31036056 72.99804511 44.3590157 95.09053471 53.33862305 117.21362305 C55.48678023 122.50519317 57.64572411 127.7922683 59.80938721 133.07751465 C60.95681981 135.89400965 62.08862825 138.71636796 63.21826172 141.54003906 C63.90411115 143.22742143 64.59044139 144.91460849 65.27734375 146.6015625 C65.56855606 147.34240082 65.85976837 148.08323914 66.1598053 148.8465271 C68.62679584 154.84084531 71.85070259 161.3676881 77.7734375 164.4375 C78.63195312 164.623125 79.49046875 164.80875 80.375 165 C81.24898437 165.20625 82.12296875 165.4125 83.0234375 165.625 C83.67570313 165.74875 84.32796875 165.8725 85 166 C85 167.32 85 168.64 85 170 C64.21 170 43.42 170 22 170 C22 168.68 22 167.36 22 166 C23.7578125 165.34895833 25.515625 164.69791667 27.2734375 164.046875 C29.55388434 162.66416062 30.02239698 161.46805136 31 159 C31.57234626 150.34247169 28.28429158 142.73133515 24.9375 134.9375 C24.00648131 132.71855094 23.07795865 130.49855238 22.15234375 128.27734375 C21.73976318 127.31046631 21.32718262 126.34358887 20.90209961 125.34741211 C20 123 20 123 20 121 C0.53 121 -18.94 121 -39 121 C-43.35282719 139.58555858 -43.35282719 139.58555858 -39.875 157.8125 C-34.59749352 163.9695909 -26.65231031 164.93092724 -19 166 C-19 167.32 -19 168.64 -19 170 C-37.81 170 -56.62 170 -76 170 C-76 168.68 -76 167.36 -76 166 C-75.43152344 165.82726562 -74.86304688 165.65453125 -74.27734375 165.4765625 C-62.30959831 161.12102242 -57.86937414 148.3154496 -52.78392029 137.50987244 C-49.25389687 129.89573872 -45.99266089 122.22569066 -42.95703125 114.40234375 C-42.49377945 113.21556534 -42.03052765 112.02878693 -41.55323792 110.80604553 C-35.66546727 95.68255079 -29.99278244 80.47660688 -24.31140137 65.27471924 C-23.14614394 62.15827821 -21.97883479 59.04260762 -20.81145287 55.9269619 C-13.83243668 37.30008602 -6.89119183 18.65955996 0 0 Z M-11 45 C-16.02221756 56.49371687 -20.23905596 68.29389489 -24.5625 80.0625 C-25.32464326 82.13094286 -26.08701147 84.19930284 -26.84960938 86.26757812 C-29.4385842 93.29248651 -29.4385842 93.29248651 -32.01687622 100.32131958 C-32.71752122 102.23034068 -33.42393968 104.13724697 -34.13424683 106.04269409 C-34.50107574 107.03334869 -34.86790466 108.0240033 -35.24584961 109.04467773 C-35.58160507 109.94572739 -35.91736053 110.84677704 -36.26329041 111.77513123 C-37.10478012 113.92582536 -37.10478012 113.92582536 -37 116 C-18.85 116 -0.7 116 18 116 C9.08970766 92.15555572 -0.38016414 68.56580188 -10 45 C-10.33 45 -10.66 45 -11 45 Z " fill="#FFFFFF" transform="translate(408,448)"/>
<path d="M0 0 C22.44 0 44.88 0 68 0 C68 1.32 68 2.64 68 4 C67.34773438 4.15855469 66.69546875 4.31710937 66.0234375 4.48046875 C60.16004944 6.04576851 56.16796733 7.51943512 52 12 C49.18641213 17.88301471 49.71208136 24.2057662 49.7253418 30.57958984 C49.72023087 31.8453334 49.71511993 33.11107697 49.70985413 34.41517639 C49.69650077 37.87602124 49.69588141 41.33675663 49.69841743 44.7976222 C49.69948976 47.69258548 49.69459699 50.58752685 49.689812 53.48248541 C49.6787292 60.31581435 49.6782723 67.14908831 49.68432617 73.98242188 C49.69036381 81.01817512 49.67805757 88.05372827 49.6567561 95.08944738 C49.63910812 101.14231014 49.63314382 107.1951094 49.63639385 113.24799693 C49.63820197 116.85768174 49.63561791 120.46722384 49.62167931 124.07688522 C49.60670503 128.10526146 49.61609893 132.13323367 49.62768555 136.16162109 C49.62004181 137.34837936 49.61239807 138.53513763 49.60452271 139.75785828 C49.65375693 147.5110296 50.35943583 153.39923067 55.0625 159.8125 C59.06203909 162.79088017 63.19490111 163.85237444 68 165 C68 166.65 68 168.3 68 170 C45.56 170 23.12 170 0 170 C0 168.35 0 166.7 0 165 C0.73605469 164.8040625 1.47210937 164.608125 2.23046875 164.40625 C8.50569799 162.48306217 12.05266787 160.87238704 15.1953125 155 C16.75057683 151.13448866 17.12863001 147.72377705 17.14717102 143.56158447 C17.15432632 142.45697876 17.16148163 141.35237305 17.16885376 140.21429443 C17.17154266 139.00694641 17.17423157 137.79959839 17.17700195 136.55566406 C17.18357315 135.28045898 17.19014435 134.00525391 17.19691467 132.69140625 C17.21791088 128.46615853 17.22831289 124.24091064 17.23828125 120.015625 C17.24233046 118.55840791 17.24644744 117.10119101 17.25063133 115.6439743 C17.26967325 108.79678009 17.28390637 101.94959658 17.2922433 95.10238099 C17.30201236 87.2102638 17.32832715 79.31842732 17.36874419 71.42640901 C17.39894672 65.31839587 17.41371608 59.21046303 17.41702431 53.1023767 C17.41937008 49.45793799 17.42826826 45.81379952 17.45348549 42.16944122 C17.48118963 38.10008698 17.47692251 34.03135674 17.4699707 29.96191406 C17.48278076 28.76266296 17.49559082 27.56341187 17.50878906 26.32781982 C17.46584425 19.42650408 16.78860271 14.83727131 13 9 C8.98243794 6.32162529 4.63248265 5.20444549 0 4 C0 2.68 0 1.36 0 0 Z " fill="#FFFFFF" transform="translate(1004,629)"/>
<path d="M0 0 C21.78 0 43.56 0 66 0 C66 1.32 66 2.64 66 4 C65.19175781 4.14695312 64.38351562 4.29390625 63.55078125 4.4453125 C56.57548335 5.70239764 56.57548335 5.70239764 50.875 9.5625 C46.58840616 17.42125538 46.70802799 26.21552543 46.74121094 34.97631836 C46.7377063 36.13053787 46.73420166 37.28475739 46.73059082 38.47395325 C46.72183914 42.26264588 46.72759991 46.05114945 46.734375 49.83984375 C46.73302638 52.48963144 46.73108676 55.13941354 46.72857666 57.78919983 C46.72494997 63.33271301 46.72970136 68.8761727 46.73925781 74.41967773 C46.75013449 80.80217752 46.74661729 87.18454942 46.735605 93.56704611 C46.72648854 99.07396686 46.7252682 104.58084942 46.73048234 110.08777529 C46.7335789 113.36491196 46.73327491 116.64197637 46.72740936 119.91911125 C46.72229799 123.57758956 46.73011933 127.23582664 46.74121094 130.89428711 C46.73716248 131.96111725 46.73311401 133.02794739 46.72894287 134.12710571 C46.78165999 143.57161213 47.16811594 153.22415459 53 161 C56.56344247 163.27453775 59.83109059 164.38692509 64 165 C64 166.65 64 168.3 64 170 C42.88 170 21.76 170 0 170 C0 168.35 0 166.7 0 165 C1.85625 164.38125 1.85625 164.38125 3.75 163.75 C8.33171805 162.01768964 10.95768365 160.08463269 13.1875 155.625 C14.63720634 150.94133338 15.12475267 146.36731987 15.14044189 141.47966003 C15.14615204 140.40740677 15.15186218 139.3351535 15.15774536 138.23040771 C15.15942215 136.48863251 15.15942215 136.48863251 15.16113281 134.71166992 C15.16609772 133.47679337 15.17106262 132.24191681 15.17617798 130.96961975 C15.18825123 127.59342956 15.19573525 124.21730102 15.20018864 120.84109664 C15.2031284 118.72802388 15.20723484 116.61495643 15.21169281 114.50188637 C15.22535136 107.8794807 15.23502645 101.2570873 15.2388947 94.63466853 C15.24337375 87.01034236 15.26092132 79.38619561 15.2898953 71.76192397 C15.31156062 65.85427654 15.32160154 59.94667941 15.32293582 54.0389927 C15.32398024 50.51701044 15.32981027 46.99519722 15.34775543 43.47325706 C15.36740372 39.54095124 15.36292784 35.60886726 15.35644531 31.67651367 C15.37026749 29.9438475 15.37026749 29.9438475 15.3843689 28.17617798 C15.3457743 20.68676766 15.04054517 13.29392394 9.75 7.5625 C6.49947379 5.71561011 3.63291053 4.85480248 0 4 C0 2.68 0 1.36 0 0 Z " fill="#FFFFFF" transform="translate(817,629)"/>
<path d="M0 0 C24.09 0 48.18 0 73 0 C73 1.32 73 2.64 73 4 C72.06800781 4.13535156 71.13601563 4.27070312 70.17578125 4.41015625 C55.69214186 6.8558264 45.58897443 12.7957461 35 23 C33.69326286 24.1109808 32.38101197 25.21551939 31.0625 26.3125 C18.66074497 37.14850239 8.07075182 50.74811796 -2.125 63.625 C-2.58648438 64.20491699 -3.04796875 64.78483398 -3.5234375 65.38232422 C-5.69293986 68.1538308 -7.49031155 70.82786208 -9 74 C-1.75990417 83.90542467 5.54250922 93.75691462 13 103.5 C18.09994249 110.16646727 23.15229666 116.86302019 28.125 123.625 C28.69041504 124.39231445 29.25583008 125.15962891 29.83837891 125.95019531 C32.81908995 130.00341714 35.77370269 134.07360737 38.703125 138.1640625 C39.31784668 139.01532715 39.93256836 139.8665918 40.56591797 140.74365234 C41.72925832 142.35537326 42.88517869 143.97249002 44.03173828 145.59619141 C50.71451789 154.82210067 58.26708329 161.56494123 69.68359375 163.68359375 C73.11851141 164.18516783 76.54898083 164.62691685 80 165 C80 166.65 80 168.3 80 170 C74.70217866 170.07511089 69.40467876 170.12904757 64.10644531 170.16479492 C62.31049183 170.17972375 60.51457377 170.20007424 58.71875 170.22631836 C42.9616115 170.45054103 28.30817564 170.48105727 16.08007812 159.23413086 C11.32729331 154.55432662 7.2595803 149.66459189 3.375 144.25 C2.77945313 143.43144531 2.18390625 142.61289062 1.5703125 141.76953125 C-3.27732008 135.0785762 -8.0085601 128.30650301 -12.72216797 121.52075195 C-18.55322343 113.1475537 -24.61071405 104.94642003 -30.70996094 96.76733398 C-34.00857974 92.24827617 -34.00857974 92.24827617 -33.9375 90.19140625 C-32.55443954 86.95850244 -30.30538083 84.54224086 -28 81.9375 C-26.98879161 80.77021664 -25.97838584 79.60223754 -24.96875 78.43359375 C-24.46472656 77.85335449 -23.96070313 77.27311523 -23.44140625 76.67529297 C-21.41516386 74.32026667 -19.45619665 71.9133513 -17.5 69.5 C-14.69587716 66.05107886 -11.85326185 62.64262851 -8.96386719 59.26538086 C10.08026328 38.66374029 10.08026328 38.66374029 17 13 C16.12198006 9.83912823 15.23585882 9.14956901 12.4375 7.375 C8.35397198 5.74158879 4.31110819 4.81432044 0 4 C0 2.68 0 1.36 0 0 Z " fill="#FFFFFF" transform="translate(910,629)"/>
<path d="M0 0 C-3.33575436 7.31027019 -6.07326461 12.92953952 -13.4375 16.8125 C-16.89673032 17.96557677 -19.39012376 18.26413729 -23 18 C-22.48168678 14.16448215 -21.74372987 12.63398068 -19 10 C-18.566875 8.7315625 -18.566875 8.7315625 -18.125 7.4375 C-17 5 -17 5 -14.8125 3.875 C-13.4203125 3.441875 -13.4203125 3.441875 -12 3 C-10.845 2.46375 -9.69 1.9275 -8.5 1.375 C-5.20723151 0.08141238 -3.43419587 -0.12937039 0 0 Z " fill="#FBFBFB" transform="translate(996,356)"/>
<path d="M0 0 C8.29787234 0.82978723 8.29787234 0.82978723 12 3 C13.2684375 3.37125 13.2684375 3.37125 14.5625 3.75 C17.92526708 5.47449594 18.50375321 7.59943912 20 11 C20.556875 11.721875 21.11375 12.44375 21.6875 13.1875 C23 15 23 15 23 18 C21.4365085 17.91195873 19.87414611 17.80376854 18.3125 17.6875 C17.44238281 17.62949219 16.57226562 17.57148438 15.67578125 17.51171875 C11.23151954 16.66179425 8.75961023 14.99287636 6.015625 11.40625 C5.43296875 10.4471875 4.8503125 9.488125 4.25 8.5 C3.65703125 7.5409375 3.0640625 6.581875 2.453125 5.59375 C1 3 1 3 0 0 Z " fill="#0F0F0F" transform="translate(924,356)"/>
<path d="M0 0 C1.60875 -0.00386719 1.60875 -0.00386719 3.25 -0.0078125 C6 0.125 6 0.125 8 1.125 C7.67 3.435 7.34 5.745 7 8.125 C6.01 7.795 5.02 7.465 4 7.125 C3.34 8.775 2.68 10.425 2 12.125 C4.97 13.775 7.94 15.425 11 17.125 C7.35843902 18.03539025 5.79952993 18.12238636 2.25 17.625 C-2.40606027 17.07926 -6.38547546 17.35591258 -11 18.125 C-8.11964908 15.88472706 -5.15133488 13.96327868 -2 12.125 C-2.66 10.475 -3.32 8.825 -4 7.125 C-4.99 7.455 -5.98 7.785 -7 8.125 C-7.33 5.815 -7.66 3.505 -8 1.125 C-5.26922124 -0.24038938 -3.04439633 -0.00731826 0 0 Z " fill="#FFFFFF" transform="translate(960,400.875)"/>
<path d="M0 0 C2.3125 1.25 2.3125 1.25 3.3125 2.25 C3.02519945 4.58944736 2.69313221 6.9239143 2.3125 9.25 C-3.13486842 10.58157895 -3.13486842 10.58157895 -5.5625 9.125 C-7.08213316 6.59227807 -7.19569361 5.1539635 -6.6875 2.25 C-4.33222347 -0.45420638 -3.50969299 -0.97944921 0 0 Z " fill="#0D0D0D" transform="translate(984.6875,359.75)"/>
<path d="M0 0 C7.50769231 0.61538462 7.50769231 0.61538462 10 2.5625 C10.33 3.036875 10.66 3.51125 11 4 C10.34 4.66 9.68 5.32 9 6 C8.97624074 7.9931567 8.97624074 7.9931567 9.375 10.125 C9.58125 11.40375 9.7875 12.6825 10 14 C9.34 14 8.68 14 8 14 C6.30859375 11.69921875 6.30859375 11.69921875 4.4375 8.6875 C3.81746094 7.70136719 3.19742188 6.71523438 2.55859375 5.69921875 C1 3 1 3 0 0 Z " fill="#FBFBFB" transform="translate(924,356)"/>
<path d="M0 0 C2.5 2.3125 2.5 2.3125 5 5 C5 5.99 5 6.98 5 8 C3.39482903 7.91266424 1.79078338 7.80447776 0.1875 7.6875 C-1.15248047 7.60048828 -1.15248047 7.60048828 -2.51953125 7.51171875 C-5.30604 6.93686419 -6.24135754 6.1793144 -8 4 C-4.535 3.505 -4.535 3.505 -1 3 C-0.67 2.01 -0.34 1.02 0 0 Z " fill="#FBFBFB" transform="translate(942,366)"/>
</svg>
